<svg xmlns="http://www.w3.org/2000/svg" viewBox="0 0 253.822 45.468"><defs><style>.cls-1{fill:#fff;}</style></defs><title>Ativo 4mardan-mobile</title><g id="Camada_2" data-name="Camada 2"><g id="Layer_1" data-name="Layer 1"><path class="cls-1" d="M186.752,14.541c-.437.2-.566.033-.7-.243a2.972,2.972,0,0,0-2.1-1.575.855.855,0,0,0-1.1.422,4.118,4.118,0,0,0-.623,1.877,8.706,8.706,0,0,0,.376,3.519,26.708,26.708,0,0,0,3.527,7.217c1.3,1.963,2.63,3.909,3.906,5.889.5.777.887,1.627,1.333,2.439.181.329.38.648.608,1.034.306-.345.551-.628.8-.9q5.719-6.234,11.44-12.466a90.638,90.638,0,0,0,6.383-7.4,19.617,19.617,0,0,0,2.843-4.763,15.759,15.759,0,0,0,.892-4.029,5.151,5.151,0,0,0-.783-3.342,3.687,3.687,0,0,0-3.7-1.638,9.05,9.05,0,0,0-4.11,1.878,16.283,16.283,0,0,0-4.219,4.858c-.26.72-.665.883-.606.26a12.224,12.224,0,0,1,3.039-4.4,10.457,10.457,0,0,1,5.11-2.985,4.56,4.56,0,0,1,4.727,1.219,5.3,5.3,0,0,1,1.421,3.647,12.5,12.5,0,0,1-1.734,6.76c-1.2,1.912-2.466,3.793-3.847,5.577-2.8,3.612-5.7,7.149-8.822,10.486-1.9,2.032-3.887,3.988-5.848,5.966-.87.877-1.766,1.729-2.662,2.581a1.974,1.974,0,0,1-1.507.517,1.629,1.629,0,0,1-1.139-.5,18.525,18.525,0,0,1-2.982-3.711c-.981-1.63-2.065-3.2-3.1-4.8a26.426,26.426,0,0,1-3.424-6.952,10.383,10.383,0,0,1-.345-5.35,5.925,5.925,0,0,1,1.6-2.895,3.406,3.406,0,0,1,5.128,1.046A3.851,3.851,0,0,1,186.752,14.541Z"></path><path class="cls-1" d="M207.6,37.113a2.136,2.136,0,0,1-1.163-1.832,10.721,10.721,0,0,1,.806-4.565,14.467,14.467,0,0,1,4.112-5.947,4.975,4.975,0,0,1,2.791-1.245,3.11,3.11,0,0,1,1.03.034,1.31,1.31,0,0,1,.859.83c.37.692.6.588.765,1.107a2.957,2.957,0,0,1,.052,1.694c-.178.83-.586,1.764-.531,1.833a6.332,6.332,0,0,0,2.952-1.349c.328-.242.679-.588.791-.622.209-.173.348-.173.449,0,.034,0,.054.069.017.242.027.035-.03.138-.171.311a10.126,10.126,0,0,1-4.594,2.559,13.907,13.907,0,0,0-1.779,2.49l-.593.829-.6.865-.529.692a13.83,13.83,0,0,1-1.139,1.279,3.211,3.211,0,0,1-1.174.8A2.557,2.557,0,0,1,207.6,37.113Zm4.138-2.524a38.121,38.121,0,0,0,2.641-3.769c.311-.484.336-.761.116-.865a2.138,2.138,0,0,1-1.212-2.247,3.031,3.031,0,0,1,1.8-2.732s-.044-.761-.543-.692c-1.539.243-2.9,1.73-4.084,4.53a21.138,21.138,0,0,0-1.438,5.257,4.584,4.584,0,0,0,.049,1.382c.13.519.328.727.647.692A3.688,3.688,0,0,0,211.739,34.589Zm4.331-7.3a4.348,4.348,0,0,0,.1-.968c.062-.45-.244-.8-.647-.692a.976.976,0,0,0-.791.623,2.523,2.523,0,0,0-.049,2c.121.242.5.588.746.553C215.613,28.78,215.981,27.708,216.07,27.293Z"></path><path class="cls-1" d="M230.465,25.633c-.052-.242-.336-.207-.477-.034a28.189,28.189,0,0,1-4.037,3.181l-1.813,1.037c-.084.07-.16.1-.223.07-.034,0-.1-.035-.142-.139a19.346,19.346,0,0,1-1.527-4.011.638.638,0,0,1,.169-.623c.309-.311,1.152-1.175,1.384-1.452l.464-.553a6.327,6.327,0,0,0,.948-1.521c.443-.934.446-1.591.024-2.041-.478-.518-1.315-.484-2.443.1a6.11,6.11,0,0,0-2.978,3.562,7.225,7.225,0,0,0-.012,2.8l.162.691a5.072,5.072,0,0,1-.393.865l-.686,1.171,1.418-1.033c.18.449.407,1,.716,1.66a11.587,11.587,0,0,1,.535,1.21,1.538,1.538,0,0,1,.04.622,1.215,1.215,0,0,1-.341.623,8.237,8.237,0,0,1-.742.553c-.516.311-1.222.864-2.174,1.591a6.87,6.87,0,0,0-2.184,2.766,1.342,1.342,0,0,0,.8,1.452,2.408,2.408,0,0,0,2.072.173,5.788,5.788,0,0,0,2.986-1.832,7.145,7.145,0,0,0,2.232-4.6c.017-.242-.017-.726-.022-.864a.856.856,0,0,1,.185-.38,5.1,5.1,0,0,1,.993-.761,48.694,48.694,0,0,0,4.462-3.389,4.955,4.955,0,0,0,.64-.726A.172.172,0,0,0,230.465,25.633ZM221.7,33.275a5.3,5.3,0,0,1-1.092,3.32,3.174,3.174,0,0,1-1.878,1.175,1.547,1.547,0,0,1-1.62-.345c-.252-.277-.133-.83.4-1.7a6.269,6.269,0,0,1,1.643-1.694c.5-.38.42-.346,1.027-.761l.49-.346c.489-.346.76-.484.857-.449C221.685,32.549,221.729,32.825,221.7,33.275Zm.239-8.852c-.289-.1-.393-1.072-.1-1.8a7.594,7.594,0,0,1,1.315-1.937c.59-.657,1.111-.83,1.509-.588l.116.1c.144.139.055.553-.274,1.28a.687.687,0,0,0-.079.207,7.156,7.156,0,0,1-1.342,1.9C222.511,24.181,222.141,24.457,221.941,24.423Z"></path><path class="cls-1" d="M253.535,24.319q-.73-1.192-4.135-1.037a19.5,19.5,0,0,0-5.286,1.106,48.9,48.9,0,0,0-5.9,2.352c-.807.38-1.748.9-2.739,1.487s-1.771,1-2.287,1.313-.816.415-.87.347a11.644,11.644,0,0,1-1.6-3.493.631.631,0,0,1,.168-.622,21.93,21.93,0,0,0,1.6-1.833,12.985,12.985,0,0,0,1.164-2.04c.541-1.072.531-1.833.055-2.352s-1.314-.484-2.443.1a6.1,6.1,0,0,0-2.977,3.562l-.208.968a1.8,1.8,0,0,0-.039.346,5.269,5.269,0,0,0,.4,1.832c.012.1.14.312.153.415l-.6,1-1.1,1.1,1.984-1.339c.351,1.106,1.081,2.7,1.146,3.043a1.536,1.536,0,0,1,.039.622,1.208,1.208,0,0,1-.341.623,8.261,8.261,0,0,1-.741.553c-.516.311-1.222.864-2.174,1.591a6.853,6.853,0,0,0-2.184,2.766,1.341,1.341,0,0,0,.795,1.452,2.408,2.408,0,0,0,2.072.173,5.787,5.787,0,0,0,2.987-1.832,7.059,7.059,0,0,0,2.231-4.6c.06-.276-.311-.968.171-1.279.111-.035,1.683-1.072,3.217-1.936a18.848,18.848,0,0,1,2.215-1.141c4.993-2.317,8.8-3.458,11.462-3.458,1.21,0,2.317.484,2.295,1.072l-.193,1.383a.631.631,0,0,0,.6.761,1.01,1.01,0,0,0,.912-.381A2.6,2.6,0,0,0,253.535,24.319Zm-23.362,8.956a5.3,5.3,0,0,1-1.092,3.32A3.171,3.171,0,0,1,227.2,37.77a1.545,1.545,0,0,1-1.619-.345c-.253-.277-.134-.83.4-1.7a6.269,6.269,0,0,1,1.643-1.694c.5-.38.42-.346,1.028-.761l.489-.346c.49-.346.761-.484.857-.449C230.156,32.549,230.2,32.825,230.173,33.275Zm.419-8.4c-.288-.1-.357-1.072-.056-2.316.438-1.556,1.542-2.836,2.6-2.456.228.07.272.346.176.8C233.014,22.452,230.886,25.114,230.592,24.872Z"></path><path class="cls-1" d="M38.57,35.922A8.447,8.447,0,0,1,39.3,31.27,15.03,15.03,0,0,1,42.374,26.4c2.5-2.756,6.191-3.737,7.67-2.864a1.455,1.455,0,0,1,.732,1.634,3.4,3.4,0,0,1-.867,1.457.745.745,0,0,1-.482.2c-.3,0-.628.324-.308-.384s1.045-1.715.592-2.114c-1.078-.947-3.6.26-5.647,2.427a10.251,10.251,0,0,0-2.4,3.969,9.918,9.918,0,0,0-.635,4.252c-.01.674.8.843,1.314.472A10.145,10.145,0,0,0,44.4,33.427l1.134-1.517q.8-1.113,1.135-1.517c.5-.607,2.661-4.551,3.276-5.056.409-.338.714-.338.91,0a1.183,1.183,0,0,1,.1.808q-.192,1.367-.766,4.046c-.244.977-.569,2.5-1,4.484-.109.505.029.808.411.91.759.236,1.821-.472,3.22-2.124a38.494,38.494,0,0,0,3.245-4.753c.171-.284.411-.506.564-.742.028-.044.108-.034.2,0,.169,0,.214.1.178.27a6.966,6.966,0,0,1-.52,1.011,42.237,42.237,0,0,1-3.736,5.63c-1.838,2.124-4.006,2.8-5.3,2.09a2.365,2.365,0,0,1-.821-2.461c.089-.573.15-1.011.208-1.281l.368-1.719c.036-.169-.009-.27-.144-.27a.7.7,0,0,0-.552.371l-.647.977c-.663,1.046-.793,1.18-1.426,2.091a9.964,9.964,0,0,1-1.591,1.753,3.66,3.66,0,0,1-1.813.91A2.221,2.221,0,0,1,38.57,35.922Z"></path><path class="cls-1" d="M61.15,35.094l.279-2.589c-.116-.1-.226-.07-.36.069a19.2,19.2,0,0,1-3.876,3.589c-.97.656-2.564.691-3.021.242a1.944,1.944,0,0,1-.687-1.139,6.01,6.01,0,0,1,.2-1.9,15.438,15.438,0,0,1,2.777-5.384l.41-.622c.451-.655.534-.724.964-1.277a10.985,10.985,0,0,1,1.31-1.277A9.821,9.821,0,0,1,61.1,23.6c.883-.414,2.843-.863,3.4.414l.323-.863a42.248,42.248,0,0,1,2.171-4.487l.488-.828.552-.967.5-.863c.565-.863,2.913-4.494,3.438-5.011A5.739,5.739,0,0,1,75.02,9.13c1.44-.277,1.943.759,1.185,2.519a76.96,76.96,0,0,1-4.09,8.533,38.693,38.693,0,0,1-2.244,3.383l-.725.966-.992,1.243L66.7,27.568a7.316,7.316,0,0,0-1.524,2.279,20.308,20.308,0,0,0-.849,2.83,7.456,7.456,0,0,0-.3,2.52,1.06,1.06,0,0,0,1.5.414A6.821,6.821,0,0,0,67.384,34.2a12.513,12.513,0,0,0,1.46-1.657l.281-.345c.914-1.208,1.62-2.244,2.193-3.141.238-.311.406-.449.564-.38.165.035.247.138.175.311a17.424,17.424,0,0,1-2.141,3.383c-.133.138-.691.966-1.112,1.484a13.45,13.45,0,0,1-2.885,2.83,4.694,4.694,0,0,1-2.745.725A2.242,2.242,0,0,1,61.15,35.094Zm-2.806-.76A16.08,16.08,0,0,0,60.9,31.745a11.037,11.037,0,0,0,1.845-2.485l1.278-4.349c-.966-1.933-3.344.138-4.182,1.311a28.485,28.485,0,0,0-3.18,5.972c-.616,1.588-.755,2.554-.38,2.9C56.609,35.508,57.632,34.921,58.344,34.334Zm8.289-7.9c.19-.242.871-1,1.11-1.312.155-.242.535-.725,1.07-1.45l1.021-1.381s.61-.9.812-1.208c.824-1.239,1.7-3.182,2.388-4.459A43.643,43.643,0,0,0,75.121,12.2c.7-1.519.592-2.278-.461-2.037-1.483.311-3.095,2.52-4.874,6.627-2.341,5.282-3.909,9.465-3.513,9.707C66.347,26.637,66.458,26.6,66.633,26.43Z"></path><path class="cls-1" d="M71.886,37.337a3,3,0,0,1-1.546-.518,2.341,2.341,0,0,1-.764-1.587c-.249-1.9.455-4.212,2.144-6.939A14.819,14.819,0,0,1,75.4,24.324c1.867-1.139,3.1-1.243,3.775-.38a1.277,1.277,0,0,1,.123,1.519,7.751,7.751,0,0,1-2.673,2.969,30.1,30.1,0,0,1-3.263,2.174,1.815,1.815,0,0,0-.683.932c-.251,1.173-.407,1.9-.439,2.209-.185.863,0,1.933.6,2.209.824.345,1.948-.069,3.366-1.208A19.364,19.364,0,0,0,80.1,30.606c.642-.9,1.182-1.967,1.392-2.14.293-.242.473-.276.574-.1a.609.609,0,0,1-.062.448c-.226.414-.966,1.45-1.235,1.9a28.46,28.46,0,0,1-1.657,2.416c-2.08,2.45-3.539,3.624-5.722,4.142A3.925,3.925,0,0,1,71.886,37.337Zm3.727-9.009c.168-.138,1.026-.76,1.251-1a8.493,8.493,0,0,0,1.1-1.105c.57-.724.575-1.553.054-1.864-.74-.414-1.812.242-2.549,1.105a13.4,13.4,0,0,0-1.991,3c-.318.518-.392.863-.242.966C73.5,29.64,74.309,29.26,75.613,28.328Z"></path><path class="cls-1" d="M104.764,36.992a2.133,2.133,0,0,1-1.161-1.83,10.709,10.709,0,0,1,.8-4.556,14.45,14.45,0,0,1,4.105-5.937,4.959,4.959,0,0,1,2.786-1.242,3.1,3.1,0,0,1,1.028.034,1.306,1.306,0,0,1,.858.828c.37.691.6.587.764,1.1A2.957,2.957,0,0,1,114,27.085c-.177.829-.584,1.761-.53,1.83a6.318,6.318,0,0,0,2.947-1.347c.328-.241.678-.586.789-.621.21-.172.348-.172.449,0,.034,0,.054.069.017.242.027.034-.029.138-.17.31a10.114,10.114,0,0,1-4.587,2.555,13.9,13.9,0,0,0-1.776,2.485l-.592.828-.6.863-.528.691a13.63,13.63,0,0,1-1.137,1.277,3.21,3.21,0,0,1-1.171.794A2.561,2.561,0,0,1,104.764,36.992Zm4.13-2.52a38.281,38.281,0,0,0,2.637-3.762c.311-.484.335-.76.116-.863a2.136,2.136,0,0,1-1.21-2.244,3.026,3.026,0,0,1,1.793-2.727s-.044-.759-.543-.69c-1.536.241-2.89,1.726-4.076,4.522a21.108,21.108,0,0,0-1.436,5.246,4.61,4.61,0,0,0,.049,1.381c.131.517.328.725.646.691A3.68,3.68,0,0,0,108.894,34.472Zm4.324-7.283a4.392,4.392,0,0,0,.1-.967c.061-.448-.244-.794-.646-.69a.97.97,0,0,0-.789.622,2.518,2.518,0,0,0-.05,2c.121.242.5.587.745.553C112.761,28.673,113.129,27.6,113.218,27.189Z"></path><path class="cls-1" d="M114.606,33.264l1.239-3.038,1.458-3.417,1.1-2.554c.261-.414.451-.656.6-.69.909-.38,1.634.1,1.449.966a43.717,43.717,0,0,1-1.843,5.212q-1.675,4.194-1.895,4.971c-.234.932.21,1.277.727,1.277.588,0,1.389-.518,2.481-1.588a20.164,20.164,0,0,0,1.82-2.209,35.223,35.223,0,0,0,2.026-3c.36-.552.833-.345.542.207l-.678,1.07c-2.519,4.176-4.76,6.42-6.733,6.765C114.314,37.682,113.41,36.267,114.606,33.264Zm5.046-11.878a.847.847,0,0,1,.011-1.173,1.5,1.5,0,0,1,.983-.725,1.611,1.611,0,0,1,1.2.034,1.089,1.089,0,0,1,.365,1.036,1.438,1.438,0,0,1-.836,1A1.523,1.523,0,0,1,119.652,21.386Z"></path><path class="cls-1" d="M135.661,25.705a5.055,5.055,0,0,1-.639.725,48.736,48.736,0,0,1-4.454,3.382,5.117,5.117,0,0,0-.991.76.848.848,0,0,0-.185.379c0,.138.039.621.022.863a7.143,7.143,0,0,1-2.227,4.591,5.784,5.784,0,0,1-2.982,1.83,2.41,2.41,0,0,1-2.068-.173,1.338,1.338,0,0,1-.794-1.45,6.845,6.845,0,0,1,2.18-2.761c.95-.725,1.655-1.277,2.17-1.588a8.079,8.079,0,0,0,.74-.552,1.216,1.216,0,0,0,.341-.622,1.534,1.534,0,0,0-.04-.621,11.4,11.4,0,0,0-.535-1.208c-.308-.656-.535-1.208-.714-1.657l-.876,1.346-.637,1.036c-.246.345-.475.449-.66.345-.22-.1,0-.31.027-.449l1.415-2.416a5.034,5.034,0,0,0,.393-.863l-.163-.69a7.219,7.219,0,0,1,.013-2.8,6.1,6.1,0,0,1,2.972-3.555c1.127-.587,1.963-.622,2.439-.1.421.449.419,1.105-.023,2.037a6.338,6.338,0,0,1-.947,1.518l-.464.553c-.231.276-1.073,1.139-1.381,1.449a.635.635,0,0,0-.168.622,19.322,19.322,0,0,0,1.524,4c.046.1.108.138.142.138.062.034.138,0,.222-.069l1.81-1.036a28.213,28.213,0,0,0,4.03-3.175c.14-.173.424-.208.476.034A.172.172,0,0,1,135.661,25.705Zm-8.78,7.456c.028-.45-.017-.726-.174-.794-.1-.035-.367.1-.856.448l-.488.346c-.607.414-.53.379-1.026.759a6.266,6.266,0,0,0-1.641,1.691c-.529.863-.648,1.415-.4,1.692a1.546,1.546,0,0,0,1.617.345,3.173,3.173,0,0,0,1.874-1.174A5.283,5.283,0,0,0,126.881,33.161Zm1.383-9.665a7.13,7.13,0,0,0,1.339-1.9.751.751,0,0,1,.079-.207c.328-.725.417-1.139.274-1.277l-.116-.1c-.4-.241-.917-.069-1.506.587a7.575,7.575,0,0,0-1.313,1.933c-.293.725-.189,1.692.1,1.8C127.319,24.358,127.689,24.082,128.264,23.5Z"></path><path class="cls-1" d="M132.992,37.337a3,3,0,0,1-1.546-.518,2.341,2.341,0,0,1-.764-1.587c-.249-1.9.455-4.212,2.144-6.939a14.819,14.819,0,0,1,3.682-3.969c1.867-1.139,3.1-1.243,3.775-.38a1.277,1.277,0,0,1,.123,1.519,7.751,7.751,0,0,1-2.673,2.969,30.1,30.1,0,0,1-3.263,2.174,1.815,1.815,0,0,0-.683.932c-.251,1.173-.407,1.9-.439,2.209-.185.863,0,1.933.6,2.209.824.345,1.948-.069,3.366-1.208a19.364,19.364,0,0,0,3.891-4.142c.642-.9,1.182-1.967,1.392-2.14.293-.242.473-.276.574-.1a.609.609,0,0,1-.062.448c-.226.414-.966,1.45-1.235,1.9a28.46,28.46,0,0,1-1.657,2.416c-2.08,2.45-3.539,3.624-5.722,4.142A3.925,3.925,0,0,1,132.992,37.337Zm3.727-9.009c.168-.138,1.026-.76,1.251-1a8.493,8.493,0,0,0,1.1-1.105c.57-.724.575-1.553.054-1.864-.74-.414-1.812.242-2.549,1.105a13.4,13.4,0,0,0-1.991,3c-.318.518-.392.863-.242.966C134.609,29.64,135.415,29.26,136.719,28.328Z"></path><path class="cls-1" d="M141.275,36.37a4.882,4.882,0,0,1-.463-2.83,47.685,47.685,0,0,1,2.029-8.008,51.583,51.583,0,0,1,3.757-8.664,21.821,21.821,0,0,1,4.664-6.455,3.75,3.75,0,0,1,2.264-.9c1.008-.035,1.461,1.07,1.17,2.589-.817,3.969-2.74,7.145-6.112,11.114-1.349,1.623-2.36,2.8-3.06,3.487a4.355,4.355,0,0,0-.975,1.967c-.854,3.176-1.152,5.212-.938,6.144a1.457,1.457,0,0,0,1.627,1.1c1.26-.242,2.192-1.692,3.147-2.761a34.586,34.586,0,0,0,3.31-4.971c.212-.345.441-.449.729-.345.131.034.079.276-.14.656l-1.591,2.588a21.721,21.721,0,0,1-4.035,5.454,4.247,4.247,0,0,1-3.095,1.07A2.389,2.389,0,0,1,141.275,36.37Zm5.674-12.288.091-.1,1.133-1.416c1.166-1.415,2.226-2.657,2.283-2.761a17.15,17.15,0,0,0,2.424-4.384,12.512,12.512,0,0,0,1.044-3.9c.01-.69-.1-.967-.421-.932-.663.035-1.637,1.036-2.251,1.967a82.476,82.476,0,0,0-4.65,9.769c-.757,1.76-.985,2.658-.73,2.761C145.967,25.118,146.345,24.807,146.949,24.082Z"></path><path class="cls-1" d="M150.249,36.37a4.882,4.882,0,0,1-.463-2.83,47.685,47.685,0,0,1,2.029-8.008,51.583,51.583,0,0,1,3.757-8.664,21.857,21.857,0,0,1,4.664-6.455,3.75,3.75,0,0,1,2.264-.9c1.008-.035,1.461,1.07,1.17,2.589-.817,3.969-2.74,7.145-6.112,11.114-1.349,1.623-2.36,2.8-3.06,3.487a4.355,4.355,0,0,0-.975,1.967c-.854,3.176-1.152,5.212-.938,6.144a1.457,1.457,0,0,0,1.627,1.1c1.26-.242,2.192-1.692,3.147-2.761a34.586,34.586,0,0,0,3.31-4.971c.212-.345.441-.449.729-.345.131.034.079.276-.14.656l-1.591,2.588a21.721,21.721,0,0,1-4.035,5.454,4.247,4.247,0,0,1-3.095,1.07A2.389,2.389,0,0,1,150.249,36.37Zm5.674-12.288.091-.1,1.133-1.416c1.166-1.415,2.227-2.657,2.283-2.761a17.181,17.181,0,0,0,2.425-4.384,12.531,12.531,0,0,0,1.043-3.9c.01-.69-.1-.967-.421-.932-.663.035-1.637,1.036-2.251,1.967a82.476,82.476,0,0,0-4.65,9.769c-.757,1.76-.985,2.658-.73,2.761C154.941,25.118,155.319,24.807,155.923,24.082Z"></path><path class="cls-1" d="M160.674,37.337a2.993,2.993,0,0,1-1.546-.518,2.333,2.333,0,0,1-.764-1.587c-.249-1.9.455-4.212,2.144-6.939a14.787,14.787,0,0,1,3.682-3.969c1.867-1.139,3.1-1.243,3.775-.38a1.28,1.28,0,0,1,.123,1.519,7.762,7.762,0,0,1-2.674,2.969,30,30,0,0,1-3.262,2.174,1.809,1.809,0,0,0-.683.932c-.252,1.173-.407,1.9-.44,2.209-.185.863,0,1.933.6,2.209.824.345,1.948-.069,3.366-1.208a19.393,19.393,0,0,0,3.892-4.142c.641-.9,1.182-1.967,1.391-2.14.294-.242.474-.276.574-.1.048.1.018.241-.061.448-.227.414-.967,1.45-1.236,1.9a28.222,28.222,0,0,1-1.657,2.416c-2.079,2.45-3.539,3.624-5.721,4.142A3.928,3.928,0,0,1,160.674,37.337Zm3.727-9.009c.168-.138,1.026-.76,1.251-1a8.491,8.491,0,0,0,1.1-1.105c.57-.724.575-1.553.055-1.864-.74-.414-1.813.242-2.55,1.105a13.4,13.4,0,0,0-1.99,3c-.318.518-.393.863-.242.966C162.29,29.64,163.1,29.26,164.4,28.328Z"></path><path class="cls-1" d="M106.193,28.4c-.128-.207-.266-.207-.449,0l-1.08,1.657-.982,1.519a31.416,31.416,0,0,1-2.977,3.9c-1.077,1-1.651.621-1.348-.794.163-.759.515-2.243.755-3.037.015-.069.269-.932.805-2.624a13.844,13.844,0,0,0,.777-3.141A1.5,1.5,0,0,0,99.47,24.5a9.865,9.865,0,0,0-3.024,2.347c-.133.138-.87,1-1.2,1.277-.545.449-.885.587-.945.38a3.782,3.782,0,0,1,.471-1.554c.6-1.518.4-2.485-.586-2.9-.4-.242-1.464.069-2.441.759a21.63,21.63,0,0,0-3.331,3.142,3.656,3.656,0,0,1-.851.66c-.2.692-.411,1.442-.635,2.22.159-.219.343-.459.578-.74,2.093-2.52,3.62-4,4.53-4.384l.506-.1c.241,0,.288.1.133.346-.095.275-.45.966-.551,1.277l-.838,2.139-.947,2.486A35.423,35.423,0,0,0,89.1,36.17a.718.718,0,0,0,.518.967,1.916,1.916,0,0,0,1.627-.345,2.694,2.694,0,0,0,.713-1.07c.057-.1.236-.622.525-1.484q.444-1.347.755-2.071a9.764,9.764,0,0,1,.7-1.347c.5-.724.839-1.173.979-1.346l.757-.794c.449-.483.807-.863,1.108-1.139l1.043-1c.845-.725,1.43-1.035,1.7-.863.239.173.022.863-.617,2.071a34.238,34.238,0,0,0-1.468,3.625,14.49,14.49,0,0,0-1.1,4.176,2.187,2.187,0,0,0,2.15,1.726,8.279,8.279,0,0,0,.843-.069c1.238-.138,2.545-1.726,4.38-4.487.762-1.139,1.547-2.382,2.437-3.8l.074-.345A.172.172,0,0,0,106.193,28.4Z"></path><path class="cls-1" d="M88.676,28.68c.45-.483.807-.863,1.108-1.139l1.043-1c.845-.724,1.629-1.052,1.9-.88l.529-1.319a1.949,1.949,0,0,0-.787.163,9.865,9.865,0,0,0-3.024,2.347c-.132.138-.87,1-1.2,1.277-.545.449-.885.587-.945.38a3.774,3.774,0,0,1,.472-1.554c.6-1.518.394-2.485-.587-2.9-.4-.242-1.464.069-2.441.759a12.278,12.278,0,0,0-3.329,3.732c-.157.144-.891,1.729-1.007,1.827-.159.56-.089.654-.269,1.284l1.66-2.513c1.781-2.785,2.326-3.052,3.236-3.432l.506-.1c.241,0,.288.1.133.346-.095.275-.449.966-.551,1.277l-.838,2.139-.947,2.486A35.423,35.423,0,0,0,82.1,36.17a.718.718,0,0,0,.518.967,1.916,1.916,0,0,0,1.627-.345,2.694,2.694,0,0,0,.713-1.07c.057-.1.237-.622.525-1.484q.444-1.347.755-2.071a9.764,9.764,0,0,1,.7-1.347c.5-.724.839-1.173.98-1.346Z"></path><path class="cls-1" d="M39.778.246a1.344,1.344,0,0,0-1.08.4A14.588,14.588,0,0,0,37.39,2.108,41.974,41.974,0,0,0,33.944,7.8a93.558,93.558,0,0,0-6.666,15.33,2.59,2.59,0,0,1-.442.78c-1.039,1.33-2.092,2.649-3.141,3.971a97.555,97.555,0,0,1-8.288,9.383,33.958,33.958,0,0,1-8.613,6.248,13.218,13.218,0,0,1-3.167,1.056c-1.014.175-2.011-.075-2.077-.576l-.036-1.2a.539.539,0,0,0-.61-.557.854.854,0,0,0-.71.453,2.248,2.248,0,0,0,.251,2.245q.783.9,3.615.281a15.513,15.513,0,0,0,3.849-1.48,15.661,15.661,0,0,0,2.959-1.658l.294-.212c.616-.391,1.213-.788,1.781-1.192.623-.439,1.338-1.014,2.084-1.654.2-.172.387-.329.564-.476A72.293,72.293,0,0,0,25.51,28.259c.142-.178.241-.43.559-.5-.112.731-.259,1.41-.309,2.091-.071.956-.1,1.915-.088,2.87a1.128,1.128,0,0,0,.807,1.131,1.271,1.271,0,0,0,1.5-.418c.841-1.006,1.787-1.943,2.521-3.018,1.544-2.259,2.979-4.588,4.459-6.888.161-.251.319-.5.479-.757-.2.838-.488,1.637-.751,2.444a33.424,33.424,0,0,0-1.6,6.44,10.359,10.359,0,0,0,.03,3.135,2.788,2.788,0,0,0,2.01,2.228,5.425,5.425,0,0,0,1,.193,2.966,2.966,0,0,0,3.02-1.8c.063-.168.074-.479-.021-.546a.858.858,0,0,0-.634-.08,1.431,1.431,0,0,0-.5.369c-.28.25-.531.535-.827.764-.33.256-.7.564-1.131.39-.448-.181-.4-.651-.429-1.059a20.424,20.424,0,0,1,.679-6.136c.587-2.467,2.9-11.171,3.345-13.079.067-.285.08-.563-.276-.658a.561.561,0,0,0-.73.345c-.43.877-.855,1.759-1.339,2.609-1.433,2.514-2.865,5.029-4.352,7.514a52.021,52.021,0,0,1-4.12,5.6,8.718,8.718,0,0,1-1.285,1.332,1.33,1.33,0,0,1-.048-.273c.019-.182.044-.364.079-.544a84.83,84.83,0,0,1,2.619-9.908,3.918,3.918,0,0,1,.444-.939Q33.6,16.6,36.3,11.927a51.12,51.12,0,0,0,3.961-8.082,11.738,11.738,0,0,0,.565-2.483C40.916.643,40.5.3,39.778.246Zm-.17,2.418a28.854,28.854,0,0,1-2.539,5.943A81.662,81.662,0,0,1,32.6,15.962c-.076.111-.17.211-.361.447.077-.286.1-.417.146-.54A93.95,93.95,0,0,1,36.4,6.458c.824-1.586,1.808-3.1,2.734-4.633a6.126,6.126,0,0,1,.563-.692l.211.077C39.809,1.7,39.739,2.187,39.608,2.664Z"></path></g></g></svg>