<?xml version="1.0" encoding="UTF-8"?>
<svg id="Camada_2" data-name="Camada 2" xmlns="http://www.w3.org/2000/svg" viewBox="0 0 1152.76 909.38">
  <defs>
    <style>
      .cls-1 {
        fill: #0b91cf;
      }

      .cls-2 {
        fill: #080707;
      }
    </style>
  </defs>
  <g id="Camada_1-2" data-name="Camada 1">
    <g>
      <path class="cls-2" d="M561.79,908.3l-.45-68.11-23.4,54.77c-1.89,4.42-7.03,3.96-10.91,4.25-6.66.51-10.8-1.5-13.27-7.39l-21-50.09-.77,66.23c-5.34,1.68-10.95,1.73-16.48,0l.16-81.38c0-4.29,3.46-9.08,7.28-9.13l13.81-.18c3.82-.05,6.6,2.22,7.98,5.68l22,55.01,21.41-52.86c1.44-3.56,3.2-6.51,7.16-7.7h14.28c5.58,0,8.49,5.01,8.48,10.5l-.15,80.07c-5,1.79-10.26,1.41-16.13.32Z"/>
      <path class="cls-2" d="M191.29,898.76c0,3.87-2.21,6.87-3.95,8.28-3.82,3.1-19.97,3.61-23.38-2.29l-37.89-65.56-.19,68.85c-5.2,1.67-10.79,1.58-16.44-.08l.11-81.38c0-4.54,3.5-8.52,7.6-9.06,8.38-1.1,16.61-1.29,19.85,4.3l37.55,64.9.45-68.65c5.34-1.36,10.5-1.24,16.21-.14l.08,80.84Z"/>
      <path class="cls-2" d="M281.47,908.86l-42.67.21c-5.32.03-9.88-3.67-9.89-9.26l-.17-72.16c-.02-6.95,5.8-10.71,12.03-10.66l40.08.33c13.65.11,23.54,9.8,24.87,23.71,1.41,14.76,1.59,29.99-.07,44.71-1.48,13.04-10.84,23.04-24.18,23.11ZM289.33,880.47l-.05-33.79c-.49-6.82-4.37-12.24-11.41-12.23l-32.16.04.08,57.35,32.94-.02c6.22,0,10.08-4.9,10.6-11.35Z"/>
      <path class="cls-2" d="M788.44,908.77l-37.58.02c-10.06,0-17.86-7-20.3-16.42-1.93-7.46-1.99-14.75-1.74-22.52l1.04-31.94c1.73-11.76,10.04-20.6,22.11-20.62l34.82-.04c12.29-.01,21.1,8.78,22.73,20.8l.99,28.79c.28,8.07.3,15.7-1.28,23.57-2.01,10.01-9.8,18.33-20.8,18.34ZM783.89,892.05c5.81.04,9.56-3.98,9.55-9.88l-.04-37.51c0-5.88-3.66-10.21-9.52-10.22h-28.06c-5.58,0-9.92,3.9-9.93,9.68l-.07,38.61c0,5.41,3.93,9.09,9.07,9.12l28.99.19Z"/>
      <path class="cls-2" d="M864.2,907.98c-5.55,1.78-11.18,1.4-16.93.27l-.08-50.26c0-2.41,1.43-3.67,3.73-3.68h48.92c6.44,0,7.93-7.12,6.23-15.39-.5-2.46-2.54-4.44-5.25-4.45l-49.88-.07c-2.21,0-3.73-1.34-3.73-3.6v-9.89c0-2.18,1.37-3.9,3.7-3.89l51.93.09c8.8.01,16.69,4.96,18.94,13.63,4.05,15.61,2.35,38.32-15.37,40.2l18.63,32.66c.69,1.2,1.27,4.68-.22,4.92-5.66.94-11,.7-16.8.04l-20.79-37.26-22.97.22-.07,36.45Z"/>
      <path class="cls-2" d="M55.43,909.03l-54.59-.13c-1.03-5.68-.78-10.66-.18-16.6l50.19-.28c2.08-.01,3.85-1.37,3.85-3.43l.04-13.46c0-2.07-1.64-3.92-3.83-3.93l-34.67-.14c-7.79-.03-13.62-6.47-15.13-14.3s-1.34-16.74-.1-24.99c1.14-7.58,7.07-14.55,14.81-14.58l49.98-.17c5.16-.02,3.89,7.61,3.03,17.11l-49.88.48c-2.41,2.91-1.52,6.91-1.65,10.28-.08,2.19-.68,7.87,1.99,8.56l34.62.53c8.9.14,16.07,6.29,17.12,15.52.92,8.1.91,16.61.02,24.85s-7.08,14.7-15.62,14.68Z"/>
      <path class="cls-2" d="M1082.22,908.96c-1.56-4.84-.63-9.31-.83-13.89-.09-2.09,1.57-3.02,3.49-3.02h45.99c2.69,0,4.68-1.23,4.68-4.18v-12.65c-.01-2.6-2.12-4.14-4.64-4.12l-30.09.19c-9.28.06-17.22-4.86-18.8-14.54-1.34-8.26-1.22-17.41.03-25.79,1.21-8.12,7.67-13.91,15.8-13.89l51.31.14c2.23,6.47,1.66,16.82-.83,16.86l-48.36.72c-2.64,3.06-2.31,12.88-.71,19l35.63.19c9.06.05,15.76,6.56,17.02,15.66,1.14,8.21,1.15,17.08-.13,25.21-1.41,8.96-8.21,14.3-16.93,14.27l-52.64-.18Z"/>
      <path class="cls-2" d="M615.23,858.47c-.02-2.79,1.44-4.13,3.71-4.14l48.85-.09c3.23,0,5.74-2.24,5.71-5.31l-.08-9.05c-.03-3.77-2.93-5.53-6.57-5.53l-50.06-.1c-2.77-5.52-1.8-16.76.39-16.78l53.65-.35c7.36-.05,13.7,3.47,16.88,9.76,3.74,7.39,3.36,14.95,3.14,22.97-.33,12.03-7.58,21.51-20.14,21.57l-38.36.17-.49,36.74c-5.79,1.06-11.02,1.35-16.35-.25l-.27-49.59Z"/>
      <path class="cls-2" d="M1011.96,907.22c0,2.44-10.2,2.92-16.59.66l-.18-73.37-30.42-.33c-2-4.42-2.04-14.47.45-16.87l77.5-.15c1.6,5.52,1.43,11.13.17,16.95l-30.73.49-.2,72.63Z"/>
      <rect class="cls-2" x="421.27" y="816.99" width="17.1" height="92.39"/>
      <g>
        <circle class="cls-1" cx="641.88" cy="317.87" r="40.87"/>
        <path class="cls-1" d="M796.06,217.74c-1.73,17.82-15.21,30.29-32.69,31.55-26.7,1.93-49.92-21.98-47.73-48.55,1.68-20.35,18.09-34.07,38.48-32.8,24.93,1.55,44.41,24.28,41.94,49.8Z"/>
        <circle class="cls-1" cx="743.32" cy="433.53" r="38.43"/>
        <path class="cls-1" d="M527.55,250.4c-18.63-.39-32.77-13.72-34.52-31.67-2.2-22.59,15.22-42.77,37.69-44.36,11.33-.8,21.53,3.3,28.58,10.76,7.45,7.87,10.85,18.6,9.35,29.9-2.63,19.78-20.3,35.8-41.11,35.37Z"/>
        <path class="cls-1" d="M855.22,376.08c-10.9-1.32-20.34-8.33-25.52-18.04-7.66-14.36-8.22-31.7-.94-46.26,5.35-10.7,15.98-18.36,28.08-18,14.61.44,26.06,10.79,31.09,23.95,5.43,14.19,5.12,29.57-2.62,42.57-6.32,10.61-17.56,17.3-30.08,15.78Z"/>
        <path class="cls-1" d="M663.16,126.94c-18.74,15.21-46.75,13.17-62.9-4.24-12.42-13.39-10.41-33.56,4.31-44.31,17.43-12.73,42.4-11.11,58.46,3.05,6.76,5.96,11.11,13.8,11.2,22.01.1,8.91-3.35,17.23-11.07,23.49Z"/>
        <path class="cls-1" d="M856.58,89.22c21.61,15.13,30.63,47.05,15.52,60.57-5.13,4.59-11.96,6.75-19.53,5.77-22.94-2.97-41.02-23.38-42.7-46.4-.97-13.32,6.9-24.27,19.69-26.54,9.45-1.68,19.03,1.01,27.02,6.6Z"/>
        <path class="cls-1" d="M536.51,453.32c-15.95-1.48-28.54-12.59-32.85-27.19-3.16-10.72-1.2-21.71,5.66-30.08,6.42-7.85,16.35-12.67,27.48-11.76,19.79,1.62,35.56,18.32,35.01,38.6-.5,18.38-16.67,32.17-35.3,30.43Z"/>
        <path class="cls-1" d="M758.24,54.07c-21.86,8.05-47.25-.16-60.58-18.71-5.46-7.6-5.85-17.16-.74-24.39,10.6-14.99,34.41-12.46,52.05-5.18,11.36,4.69,19.81,14.32,22.23,26.51,1.86,9.4-3.12,18.15-12.96,21.78Z"/>
        <path class="cls-1" d="M653.27,540.94c-16.77,12.6-40.79,9.3-53.21-7.08-8.38-11.05-7.92-26.24,1.87-35.94,16.44-16.29,44.36-13.67,57.34,5.21,8.64,12.57,6.41,28.48-6.01,37.81Z"/>
        <path class="cls-1" d="M464.95,346.28c-10.68,12.8-28.11,14.33-40.28,3.6-15.22-13.4-16.41-36.98-3.17-52.22,9.93-11.43,25.64-13.28,37.93-4.08,16.38,12.26,18.93,36.61,5.52,52.69Z"/>
        <path class="cls-1" d="M810.49,567.82c-8.52,1.3-16.13-1.4-21.2-6.82s-7.21-12.81-5.63-20.78c3.79-19.18,22.17-33.68,41.88-32.94,14.78.56,24.04,14.13,20.67,28.13-4.01,16.67-18.13,29.73-35.71,32.41Z"/>
        <path class="cls-1" d="M463.85,127.92c1.16,20.25-18.68,40.96-37.95,41.35-12.01.24-21.88-8.05-21.73-20.68.24-19.74,15.82-36.69,35.04-39.99,13.07-2.25,23.89,6.22,24.64,19.32Z"/>
        <path class="cls-1" d="M733.83,609.18c-9.01,18.88-40.09,24.45-55.18,10.92-7.85-7.04-8.5-18.22-1.82-26.31,11.69-14.15,35.85-18.18,51.25-6.24,6.7,5.19,9.56,13.64,5.75,21.63Z"/>
        <path class="cls-1" d="M930.62,425.29c15.93,21.55-8.36,69.99-25.51,64.39-22.68-7.4-14.25-55.62,9.46-68.07,5.7-2.99,12.05-1.75,16.05,3.68Z"/>
        <path class="cls-1" d="M483.99,503.17c.2,12.97-10.85,21.66-23.03,20.1-15.99-2.05-28.62-15.36-30.68-31.3-.84-6.51,1.54-12.56,5.49-16.73s10.41-7.22,17.31-6.26c16.58,2.31,30.65,16.99,30.92,34.19Z"/>
        <path class="cls-1" d="M373.73,270.95c-4.9,4.31-10.27,6.4-16.05,5.63-5.05-.67-10.01-4.37-13.01-9.63-9.12-15.93-2.09-43.09,16.24-50.98,9.6-4.13,19.84,1.5,23.65,11.46,5.65,14.75,1.37,32.78-10.83,43.52Z"/>
        <path class="cls-1" d="M553.36,34.84c3.04,16.87-30.11,37.8-59.18,29.02-4.68-1.41-7.79-5.94-8.83-9.21-5.7-17.84,37.75-39.35,61.38-27.63,3.36,1.67,6.13,5.05,6.63,7.82Z"/>
        <path class="cls-1" d="M552.89,599.52c-17.05,5.79-35.41-2.81-42.87-18.74-2.39-5.09-2.45-10.9.22-15.78,2.14-3.91,6.45-7.48,11.85-8.97,16.03-4.41,33.61,3.53,40.95,18.38,4.99,10.1,1.08,21.29-10.15,25.1Z"/>
        <path class="cls-1" d="M385.17,440.23c-9.18.72-16.23-5-21.05-11.64-7.68-10.58-10.11-24.51-3.7-35.96,5.05-9.02,15.59-11.72,24.27-6.44,12.9,7.84,19.81,23.28,16.58,38.18-1.7,7.86-7.42,15.17-16.11,15.86Z"/>
        <path class="cls-1" d="M631.55,656.48c-9.62,10.66-35.49,10.42-47.42-2.88-2.47-2.75-4.27-6.37-3.73-9.88.51-3.31,2.73-7.01,6.4-9.19,13.61-8.07,32.15-5.48,43.34,5.76,4.49,4.51,5.41,11.74,1.41,16.18Z"/>
        <path class="cls-1" d="M323.52,316.52c17.13,18.16,7.61,48.74-5.23,49.19-3.6.13-7.42-1.37-10.13-4.45-15.55-17.66-6.62-47.48,5.31-48.37,3.5-.26,7.32.73,10.04,3.62Z"/>
        <path class="cls-1" d="M416.85,567.19c-7.55,2.45-14.55-.75-19.91-5.41-10.94-9.52-18.57-24.29-10.52-31.93,9.38-8.9,32.17,4.99,36.47,24.86,1.09,5.03-1.05,10.85-6.05,12.48Z"/>
        <path class="cls-1" d="M775.14,655.12c2.84,10.68-25.4,26.03-45.01,21.48-2.95-.68-5.46-1.96-6.48-4.14-5.69-12.23,28.99-30.5,47.36-21.7,1.97.94,3.64,2.52,4.13,4.36Z"/>
        <path class="cls-1" d="M861.4,607.42c-9.97,10.93-31.2,33.6-38.95,21.88-2.37-3.59-.31-9.47,1.8-13.1,11.9-20.56,36.85-32.38,40.31-24.98,2.35,5.01.66,12.02-3.16,16.2Z"/>
        <path class="cls-1" d="M453.74,598.89c16.99-7.58,43.64,16.25,36.97,28.2-5.39,9.67-33.31,4.41-41.48-17.29-1.61-4.28.71-9.21,4.51-10.91Z"/>
        <path class="cls-1" d="M339.59,456.33c16.83,11.03,21.99,35.21,12.37,41.23-3.05,1.91-6.68,1.8-9.91-.04-18.68-10.6-23.08-36.23-13.06-41.97,3.13-1.79,7.12-1.5,10.6.78Z"/>
        <path class="cls-1" d="M385.83,88.92c10.71,8.97-27.79,50.75-39.52,41-10.21-8.49,27.64-50.95,39.52-41Z"/>
        <path class="cls-1" d="M321.7,176.13c11.16,11.5-9.42,55.08-23.94,46.67-2.33-1.35-2.66-5.21-2.55-8,.93-25.1,19.35-46.03,26.49-38.67Z"/>
        <path class="cls-1" d="M290.21,391.7c14.72,14.96,13.07,38.66,5.74,40.69-9.11,2.53-22.34-19.42-15.27-39.5.62-1.76,2.98-2.94,4.18-3.3,1.51-.45,3.78.52,5.35,2.11Z"/>
        <path class="cls-1" d="M516.51,658.46c16.92-6.54,40.4,9.2,37.27,17.55-2.74,7.32-26.86,7.46-39.84-7.08-1.57-1.76-1.92-4.32-1.58-6.19.3-1.63,2.1-3.49,4.15-4.28Z"/>
        <path class="cls-1" d="M681.82,691.5c1.34,8.39-24.05,14.14-42.79,7.42-3.38-1.21-5.46-5.47-3.11-7.94,10.5-11.06,44.33-9.36,45.9.52Z"/>
        <path class="cls-1" d="M278.22,264.02c12.47,1.35,6.51,49.52-6.68,45.82-11.1-3.11-3.68-46.95,6.68-45.82Z"/>
        <path class="cls-1" d="M357,564.59c7.87-8.03,35.33,22.26,26.93,28.87-8.81,6.93-33.65-22.01-26.93-28.87Z"/>
        <path class="cls-1" d="M410.79,621.3c6.86-7.27,36.41,14.42,31.42,22.36-5.43,8.64-38.19-15.19-31.42-22.36Z"/>
        <path class="cls-1" d="M310.04,503.68c6.72-5.47,27.87,25.35,20.44,32.35-7.35,6.93-27.94-26.25-20.44-32.35Z"/>
        <path class="cls-1" d="M600.17,709.08c-12.32,2.15-36.25-2.07-36.4-7.72-.2-7.29,37.04-3.53,38.7,4.25.25,1.15-.37,2.37-2.3,3.47Z"/>
        <path class="cls-1" d="M497.44,682.26c.71,7.11-36.14-7.63-32.99-14.45,2.73-5.92,32.21,6.63,32.99,14.45Z"/>
        <path class="cls-1" d="M287.92,480.01c-.9,1.19-4.17-.68-5.11-2.14-5.62-8.69-9.56-18.42-9.86-28.88-.17-6.03,6.68-2.31,12.29,12.4,2.18,5.73,4.66,11.75,2.69,18.62Z"/>
        <path class="cls-1" d="M258.63,341.35c6.27-2.52,8.88,37.22,2.66,38.49-6.52,1.33-7.26-36.64-2.66-38.49Z"/>
        <path class="cls-1" d="M365.5,605.84c-4.48.86-7.6-3.89-10.58-7-4.58-4.79-10.38-9.09-11.12-16.45,9.54,4.8,16.91,13.05,21.7,23.45Z"/>
        <path class="cls-1" d="M411.9,646.3c-7.95-.69-25.75-16.68-24.01-18.73.34-.4,1.3-.06,2.43-.04,7.8,4.64,16.2,9.39,21.58,18.76Z"/>
        <path class="cls-1" d="M324.77,558.8c.45.9-.59,1.8-1.71,1.62-5.39-7.77-12.13-15.06-15.3-25.5,7.9,5.61,12.55,15.07,17.01,23.87Z"/>
      </g>
    </g>
  </g>
</svg>